<?xml version="1.0" encoding="UTF-8"?>
<!DOCTYPE svg PUBLIC "-//W3C//DTD SVG 1.1//EN" "http://www.w3.org/Graphics/SVG/1.1/DTD/svg11.dtd">
<svg xmlns="http://www.w3.org/2000/svg" version="1.1" width="286px" height="180px" style="shape-rendering:geometricPrecision; text-rendering:geometricPrecision; image-rendering:optimizeQuality; fill-rule:evenodd; clip-rule:evenodd" xmlns:xlink="http://www.w3.org/1999/xlink">
<g><path style="opacity:1" fill="#fdfdfd" d="M -0.5,-0.5 C 94.8333,-0.5 190.167,-0.5 285.5,-0.5C 285.5,59.5 285.5,119.5 285.5,179.5C 190.167,179.5 94.8333,179.5 -0.5,179.5C -0.5,119.5 -0.5,59.5 -0.5,-0.5 Z"/></g>
<g><path style="opacity:1" fill="#839cad" d="M 144.5,13.5 C 147.187,13.3359 149.854,13.5026 152.5,14C 162.618,17.752 172.784,21.252 183,24.5C 183.617,25.4491 183.451,26.2825 182.5,27C 178.912,28.9227 175.246,30.756 171.5,32.5C 170.644,38.4889 169.977,44.4889 169.5,50.5C 170.822,50.33 171.989,50.6634 173,51.5C 174.38,57.0763 172.38,60.743 167,62.5C 165.011,66.9875 162.177,70.8208 158.5,74C 159.321,76.6431 160.654,78.9764 162.5,81C 169.141,82.8768 175.308,85.7102 181,89.5C 185.283,97.9627 187.116,106.963 186.5,116.5C 163.289,114.419 140.289,115.752 117.5,120.5C 114.486,120.742 111.986,119.742 110,117.5C 106.378,109.949 106.711,102.615 111,95.5C 112.214,93.9512 113.714,92.7845 115.5,92C 121.449,90.7639 127.116,88.7639 132.5,86C 136.927,83.3154 138.76,79.4821 138,74.5C 134.476,71.8046 131.642,68.4713 129.5,64.5C 121.091,60.2952 120.591,55.6285 128,50.5C 129.25,45.5805 129.75,40.5805 129.5,35.5C 127.139,35.3259 124.806,34.9926 122.5,34.5C 122.92,39.5116 123.087,44.5116 123,49.5C 121.644,50.3802 120.144,50.7135 118.5,50.5C 120.02,44.9755 120.687,39.3088 120.5,33.5C 115.564,32.759 115.23,30.9257 119.5,28C 128.224,23.6449 136.557,18.8116 144.5,13.5 Z"/></g>
<g><path style="opacity:1" fill="#f9fafa" d="M 144.5,15.5 C 147.518,15.3354 150.518,15.502 153.5,16C 162.653,19.6067 171.986,22.6067 181.5,25C 176.086,30.1627 170.086,31.4961 163.5,29C 154.467,27.153 145.467,27.153 136.5,29C 133.424,29.911 131.091,31.7443 129.5,34.5C 127.271,33.4229 124.937,32.7563 122.5,32.5C 122.034,30.7988 122.034,29.2988 122.5,28C 130.058,24.0591 137.392,19.8925 144.5,15.5 Z"/></g>
<g><path style="opacity:1" fill="#fbfcfb" d="M 138.5,29.5 C 146.917,29.0943 155.251,29.5943 163.5,31C 165.286,31.7845 166.786,32.9512 168,34.5C 168.498,37.8168 168.665,41.1501 168.5,44.5C 161.943,42.8519 155.277,41.8519 148.5,41.5C 142.713,41.875 137.046,42.875 131.5,44.5C 129.66,37.2718 131.993,32.2718 138.5,29.5 Z"/></g>
<g><path style="opacity:1" fill="#fbfcfc" d="M 140.5,43.5 C 146.176,43.3339 151.843,43.5006 157.5,44C 160.85,44.2501 164.017,45.0835 167,46.5C 168.679,58.3103 164.512,67.4769 154.5,74C 141.483,77.5695 133.316,72.7361 130,59.5C 129.333,56.1667 129.333,52.8333 130,49.5C 133.061,46.6541 136.561,44.6541 140.5,43.5 Z"/></g>
<g><path style="opacity:1" fill="#ebeff0" d="M 169.5,52.5 C 170.5,52.5 171.5,52.5 172.5,52.5C 172.858,56.6794 171.191,59.1794 167.5,60C 168.867,57.6985 169.534,55.1985 169.5,52.5 Z"/></g>
<g><path style="opacity:1" fill="#eef1f1" d="M 124.5,54.5 C 125.5,54.5 126.5,54.5 127.5,54.5C 127.838,57.0115 127.838,59.3448 127.5,61.5C 124.907,59.9292 123.907,57.5959 124.5,54.5 Z"/></g>
<g><path style="opacity:1" fill="#f8fafa" d="M 155.5,74.5 C 156.97,77.3391 158.97,80.0057 161.5,82.5C 156.961,85.8741 153.294,90.0407 150.5,95C 149.5,95.6667 148.5,95.6667 147.5,95C 144.353,91.0188 141.02,87.1855 137.5,83.5C 139.145,81.0748 140.311,78.4081 141,75.5C 146.098,78.1753 150.931,77.842 155.5,74.5 Z"/></g>
<g><path style="opacity:1" fill="#fcfdfd" d="M 162.5,83.5 C 174.896,84.0694 182.063,90.4027 184,102.5C 184.499,106.486 184.666,110.486 184.5,114.5C 162.347,113.603 140.347,114.937 118.5,118.5C 115.363,118.949 112.863,117.949 111,115.5C 109.445,110.618 109.112,105.618 110,100.5C 111.458,98.04 113.291,95.8734 115.5,94C 122.933,92.2851 129.933,89.4518 136.5,85.5C 140.5,89.8333 144.5,94.1667 148.5,98.5C 152.951,93.2355 157.618,88.2355 162.5,83.5 Z"/></g>
<g><path style="opacity:1" fill="#253441" d="M 61.5,132.5 C 62.8333,132.5 64.1667,132.5 65.5,132.5C 65.5,140.167 65.5,147.833 65.5,155.5C 64.1667,155.5 62.8333,155.5 61.5,155.5C 61.5,152.167 61.5,148.833 61.5,145.5C 58.8333,145.5 56.1667,145.5 53.5,145.5C 53.5,148.833 53.5,152.167 53.5,155.5C 51.8333,155.5 50.1667,155.5 48.5,155.5C 48.5,147.833 48.5,140.167 48.5,132.5C 50.1667,132.5 51.8333,132.5 53.5,132.5C 53.5,135.5 53.5,138.5 53.5,141.5C 56.1667,141.5 58.8333,141.5 61.5,141.5C 61.5,138.5 61.5,135.5 61.5,132.5 Z"/></g>
<g><path style="opacity:1" fill="#182935" d="M 86.5,132.5 C 86.5,133.5 86.5,134.5 86.5,135.5C 83.1667,135.5 79.8333,135.5 76.5,135.5C 76.5,137.833 76.5,140.167 76.5,142.5C 79.1667,142.5 81.8333,142.5 84.5,142.5C 84.5,143.5 84.5,144.5 84.5,145.5C 81.8333,145.5 79.1667,145.5 76.5,145.5C 76.5,147.5 76.5,149.5 76.5,151.5C 80.1188,151.881 83.4521,152.881 86.5,154.5C 81.8333,155.833 77.1667,155.833 72.5,154.5C 72.5,147.167 72.5,139.833 72.5,132.5C 77.1667,132.5 81.8333,132.5 86.5,132.5 Z"/></g>
<g><path style="opacity:1" fill="#717b81" d="M 61.5,132.5 C 62.9187,131.549 64.5853,131.216 66.5,131.5C 66.8257,139.684 66.4924,147.684 65.5,155.5C 65.5,147.833 65.5,140.167 65.5,132.5C 64.1667,132.5 62.8333,132.5 61.5,132.5 Z"/></g>
<g><path style="opacity:1" fill="#23313d" d="M 133.5,150.5 C 132.957,150.56 132.624,150.893 132.5,151.5C 135.768,152.487 139.102,152.82 142.5,152.5C 142.586,153.496 142.252,154.329 141.5,155C 137.5,155.667 133.5,155.667 129.5,155C 128.424,153.274 128.257,151.441 129,149.5C 132.427,146.58 135.261,143.247 137.5,139.5C 137.566,137.734 136.732,136.734 135,136.5C 133.374,137.289 131.874,138.289 130.5,139.5C 128.899,138.965 128.399,137.965 129,136.5C 133.333,132.5 137.667,132.5 142,136.5C 142.667,138.167 142.667,139.833 142,141.5C 139.666,145 136.832,148 133.5,150.5 Z"/></g>
<g><path style="opacity:1" fill="#1b2a38" d="M 165.5,132.5 C 170.167,132.5 174.833,132.5 179.5,132.5C 179.5,133.5 179.5,134.5 179.5,135.5C 176.167,135.5 172.833,135.5 169.5,135.5C 169.5,137.833 169.5,140.167 169.5,142.5C 172.167,142.5 174.833,142.5 177.5,142.5C 177.5,143.5 177.5,144.5 177.5,145.5C 174.833,145.5 172.167,145.5 169.5,145.5C 169.5,147.5 169.5,149.5 169.5,151.5C 173.167,151.5 176.833,151.5 180.5,151.5C 180.67,152.822 180.337,153.989 179.5,155C 174.913,155.799 170.413,155.632 166,154.5C 165.5,147.174 165.334,139.841 165.5,132.5 Z"/></g>
<g><path style="opacity:1" fill="#293743" d="M 91.5,131.5 C 93.3904,131.297 94.8904,131.963 96,133.5C 96.4995,139.491 96.6662,145.491 96.5,151.5C 99.5,151.5 102.5,151.5 105.5,151.5C 105.67,152.822 105.337,153.989 104.5,155C 100.245,155.796 96.0785,155.629 92,154.5C 91.5003,146.841 91.3336,139.174 91.5,131.5 Z"/></g>
<g><path style="opacity:1" fill="#1d2c39" d="M 117.5,147.5 C 116.167,147.5 114.833,147.5 113.5,147.5C 113.5,150.167 113.5,152.833 113.5,155.5C 112.167,155.5 110.833,155.5 109.5,155.5C 109.5,147.833 109.5,140.167 109.5,132.5C 113.514,132.334 117.514,132.501 121.5,133C 125.774,136.033 126.607,139.867 124,144.5C 122.266,146.451 120.099,147.451 117.5,147.5 Z"/></g>
<g><path style="opacity:1" fill="#f2f3f2" d="M 114.5,135.5 C 119.494,135.329 121.328,137.662 120,142.5C 119.617,143.056 119.117,143.389 118.5,143.5C 117.167,143.5 115.833,143.5 114.5,143.5C 114.5,140.833 114.5,138.167 114.5,135.5 Z"/></g>
<g><path style="opacity:1" fill="#a3a9ad" d="M 114.5,135.5 C 114.5,138.167 114.5,140.833 114.5,143.5C 115.833,143.5 117.167,143.5 118.5,143.5C 117.081,144.451 115.415,144.784 113.5,144.5C 113.19,141.287 113.523,138.287 114.5,135.5 Z"/></g>
<g><path style="opacity:1" fill="#91999e" d="M 86.5,132.5 C 81.8333,132.5 77.1667,132.5 72.5,132.5C 72.5,139.833 72.5,147.167 72.5,154.5C 71.508,147.018 71.1746,139.352 71.5,131.5C 76.6946,131.179 81.6946,131.513 86.5,132.5 Z"/></g>
<g><path style="opacity:1" fill="#182937" d="M 151.5,133.5 C 151.5,139.833 151.5,146.167 151.5,152.5C 154.833,152.5 158.167,152.5 161.5,152.5C 161.586,153.496 161.252,154.329 160.5,155C 156.245,155.796 152.079,155.629 148,154.5C 147.5,147.174 147.334,139.841 147.5,132.5C 149.099,132.232 150.432,132.566 151.5,133.5 Z"/></g>
<g><path style="opacity:1" fill="#7d868c" d="M 151.5,133.5 C 152.49,139.31 152.823,145.31 152.5,151.5C 155.713,151.19 158.713,151.523 161.5,152.5C 158.167,152.5 154.833,152.5 151.5,152.5C 151.5,146.167 151.5,139.833 151.5,133.5 Z"/></g>
<g><path style="opacity:1" fill="#23303f" d="M 189.5,132.5 C 191.792,132.244 193.959,132.577 196,133.5C 198.682,140.709 200.849,148.043 202.5,155.5C 198.849,155.838 197.183,154.172 197.5,150.5C 194.167,150.5 190.833,150.5 187.5,150.5C 188.101,154.909 186.434,156.242 182.5,154.5C 185.241,147.277 187.575,139.943 189.5,132.5 Z"/></g>
<g><path style="opacity:1" fill="#e0e2e3" d="M 191.5,137.5 C 193.956,139.818 195.289,142.818 195.5,146.5C 193.396,146.799 191.396,146.466 189.5,145.5C 190.482,142.904 191.149,140.238 191.5,137.5 Z"/></g>
<g><path style="opacity:1" fill="#1e2c3b" d="M 206.5,132.5 C 210.514,132.334 214.514,132.501 218.5,133C 222.213,134.691 223.379,137.525 222,141.5C 221.363,143.303 220.197,144.636 218.5,145.5C 220.951,148.4 222.285,151.734 222.5,155.5C 221.022,155.762 219.689,155.429 218.5,154.5C 218.011,149.443 215.344,146.776 210.5,146.5C 210.5,149.5 210.5,152.5 210.5,155.5C 209.167,155.5 207.833,155.5 206.5,155.5C 206.5,147.833 206.5,140.167 206.5,132.5 Z"/></g>
<g><path style="opacity:1" fill="#b2b6b9" d="M 216.5,136.5 C 214.833,136.5 213.167,136.5 211.5,136.5C 211.5,138.5 211.5,140.5 211.5,142.5C 212.833,142.5 214.167,142.5 215.5,142.5C 214.081,143.451 212.415,143.784 210.5,143.5C 210.5,140.833 210.5,138.167 210.5,135.5C 212.735,135.205 214.735,135.539 216.5,136.5 Z"/></g>
<g><path style="opacity:1" fill="#f8f8f7" d="M 216.5,136.5 C 217.139,137.097 217.472,137.93 217.5,139C 217.613,140.699 216.947,141.866 215.5,142.5C 214.167,142.5 212.833,142.5 211.5,142.5C 211.5,140.5 211.5,138.5 211.5,136.5C 213.167,136.5 214.833,136.5 216.5,136.5 Z"/></g>
<g><path style="opacity:1" fill="#69747b" d="M 242.5,132.5 C 243.209,131.596 244.209,131.263 245.5,131.5C 245.826,139.684 245.492,147.684 244.5,155.5C 245.132,147.427 244.465,139.76 242.5,132.5 Z"/></g>
<g><path style="opacity:1" fill="#9ea4a8" d="M 117.5,147.5 C 116.791,148.404 115.791,148.737 114.5,148.5C 114.802,151.059 114.468,153.393 113.5,155.5C 113.5,152.833 113.5,150.167 113.5,147.5C 114.833,147.5 116.167,147.5 117.5,147.5 Z"/></g>
<g><path style="opacity:1" fill="#1c2d3c" d="M 239.5,146.5 C 239.709,147.922 240.209,149.255 241,150.5C 241.499,144.509 241.666,138.509 241.5,132.5C 241.833,132.5 242.167,132.5 242.5,132.5C 244.465,139.76 245.132,147.427 244.5,155.5C 242.712,155.785 241.045,155.452 239.5,154.5C 236.727,149.287 234.227,143.954 232,138.5C 231.501,144.157 231.334,149.824 231.5,155.5C 230.167,155.5 228.833,155.5 227.5,155.5C 227.5,147.833 227.5,140.167 227.5,132.5C 229.604,132.201 231.604,132.534 233.5,133.5C 235.24,137.979 237.24,142.313 239.5,146.5 Z"/></g>
<g><path style="opacity:1" fill="#9da4a8" d="M 241.5,132.5 C 241.666,138.509 241.499,144.509 241,150.5C 240.209,149.255 239.709,147.922 239.5,146.5C 240.167,141.833 240.833,137.167 241.5,132.5 Z"/></g>
<g><path style="opacity:1" fill="#737a80" d="M 76.5,151.5 C 80.1667,151.5 83.8333,151.5 87.5,151.5C 87.7373,152.791 87.404,153.791 86.5,154.5C 83.4521,152.881 80.1188,151.881 76.5,151.5 Z"/></g>
<g><path style="opacity:1" fill="#6d737a" d="M 133.5,150.5 C 136.5,151.167 139.5,151.833 142.5,152.5C 139.102,152.82 135.768,152.487 132.5,151.5C 132.624,150.893 132.957,150.56 133.5,150.5 Z"/></g>
</svg>
